<svg width="1474" height="920" viewBox="0 0 1474 920" fill="none" xmlns="http://www.w3.org/2000/svg">
<g clip-path="url(#clip0_2532_1993)">
<rect width="1474" height="920" fill="white"/>
<path d="M667 317.07C667 418.967 570.802 547.07 443.5 547.07C316.198 547.07 208 488.467 208 386.57C208 284.674 316.198 178.07 443.5 178.07C570.802 178.07 667 215.174 667 317.07Z" fill="white"/>
<path d="M665 317.07C665 367.441 641.194 424.483 601.496 468.95C561.817 513.395 506.451 545.07 443.5 545.07C380.123 545.07 321.648 530.477 279.087 503.345C236.574 476.243 210 436.697 210 386.57C210 336.316 236.705 284.693 279.363 245.583C322.002 206.492 380.407 180.07 443.5 180.07C507.017 180.07 562.494 189.337 602.023 211.111C641.402 232.803 665 266.912 665 317.07Z" fill="#007BFF" fill-opacity="0.2" stroke="#007BFF" stroke-width="4"/>
<path d="M965.438 506.309C1046.5 549.053 1116.59 663.15 1074.48 743.024C1032.36 822.899 949.942 866.203 868.876 823.459C787.81 780.715 738.796 668.108 780.912 588.234C823.028 508.359 884.373 463.565 965.438 506.309Z" fill="white"/>
<path d="M964.505 508.078C1004.65 529.243 1042.15 568.138 1064.37 611.652C1086.6 655.189 1093.35 702.95 1072.71 742.091C1051.82 781.702 1021 812.131 985.493 827.386C950.034 842.62 909.796 842.775 869.809 821.69C829.747 800.566 797.53 762.124 780.562 719.037C763.594 675.949 761.962 628.46 782.681 589.166C803.65 549.398 829.271 518.639 859.485 503.067C889.568 487.563 924.477 486.972 964.505 508.078Z" fill="#21872B" fill-opacity="0.2" stroke="#21872B" stroke-width="4"/>
<path d="M1239.3 472.271C1135.03 425.574 1003.29 308.511 1049.3 205.771C1095.31 103.03 1232.52 48.5744 1336.8 95.2705C1441.07 141.967 1486.66 267.854 1440.65 370.595C1394.64 473.335 1343.57 518.967 1239.3 472.271Z" fill="white"/>
<path d="M1240.12 470.445C1188.21 447.2 1129.47 406.43 1089.48 358.752C1049.44 311.016 1028.6 256.901 1051.13 206.588C1073.88 155.77 1119.25 116.806 1171.92 96.3459C1224.6 75.8871 1284.41 74.0008 1335.98 97.0958C1439.22 143.328 1484.39 268.017 1438.82 369.777C1415.84 421.096 1391.78 457.67 1360.82 475.744C1330.03 493.712 1291.93 493.646 1240.12 470.445Z" fill="#FF0000" fill-opacity="0.2" stroke="#FF0000" stroke-width="4"/>
<path d="M121.21 117H126.81V92.99C126.81 85.08 121.14 80.81 112.25 80.81C104.34 80.81 98.74 84.59 98.25 91.1H104.2C104.48 88.02 107.14 85.99 112.39 85.99C118.55 85.99 121 89.07 121 93.34V94.74H109.52C99.72 94.74 96.01 100.76 96.01 106.43C96.01 112.45 100.56 117.91 108.68 117.91C113.72 117.91 117.5 116.02 119.67 113.29H121.21V117ZM110.15 112.73C104.9 112.73 101.96 110.21 101.96 106.22C101.96 102.02 104.62 99.5 110.43 99.5H121V102.72C121 108.32 116.03 112.73 110.15 112.73ZM173.475 101.53H138.055V106.64H173.475V101.53ZM173.475 87.6H138.055V92.71H173.475V87.6ZM207.753 117H213.353V92.99C213.353 85.08 207.683 80.81 198.793 80.81C190.883 80.81 185.283 84.59 184.793 91.1H190.743C191.023 88.02 193.683 85.99 198.933 85.99C205.093 85.99 207.543 89.07 207.543 93.34V94.74H196.063C186.263 94.74 182.553 100.76 182.553 106.43C182.553 112.45 187.103 117.91 195.223 117.91C200.263 117.91 204.043 116.02 206.213 113.29H207.753V117ZM196.693 112.73C191.443 112.73 188.503 110.21 188.503 106.22C188.503 102.02 191.163 99.5 196.973 99.5H207.543V102.72C207.543 108.32 202.573 112.73 196.693 112.73ZM231.738 117H242.868L254.698 81.72H248.468L238.948 111.4H236.078L226.208 81.72H220.048L231.738 117ZM287.265 81.72V85.5H285.725C283.835 83.05 280.475 80.81 274.945 80.81C265.215 80.81 259.265 88.51 259.265 98.87C259.265 109.16 265.215 116.86 274.945 116.86C280.265 116.86 283.625 114.62 285.515 112.17H287.055V114.97C287.055 122.04 283.765 126.45 276.485 126.45C271.165 126.45 267.525 124.91 266.475 120.71H260.595C261.645 127.71 267.525 131.49 276.555 131.49C286.845 131.49 293.005 125.12 293.005 115.25V81.72H287.265ZM276.065 111.68C269.135 111.68 265.215 106.5 265.215 98.87C265.215 91.1 269.135 85.99 276.065 85.99C283.625 85.99 287.195 92.08 287.195 98.87C287.195 105.59 283.625 111.68 276.065 111.68Z" fill="#274867"/>
<path d="M68.1 817.3C62.1 816 56 813.8 56 806.9C56 799.4 63.2 795.5 71.8 795.5C82.2 795.5 87.1 799.4 88.8 806.6H97.9C96.3 795.1 86.8 787.3 72 787.3C55.9 787.3 46.9 796 46.9 807.1C46.9 817.5 53.8 823.1 64.2 825.2C67.7 826 74.7 827.3 78.3 828.1C85.3 829.7 90.4 832.6 90.4 840.3C90.4 848.5 82.8 853.1 72.9 853.1C63.1 853.1 54.5 849.8 52.9 840.1H43.8C44.9 852.5 55.8 861.3 72.5 861.3C90.6 861.3 99.5 851.3 99.5 840.1C99.5 827.9 92.3 822.4 81.6 820C77.9 819.2 71.2 817.8 68.1 817.3Z" fill="#274867"/>
<path d="M306.3 840.9H255.7V848.2H306.3V840.9ZM306.3 821H255.7V828.3H306.3V821ZM348.701 863H389.401V855.2H374.101V793H363.201L348.601 802.9V812.1L363.301 802.2H365.301V855.2H348.701V863ZM453.223 839V831.5H425.923V839H453.223ZM526.265 863H534.265V828.7C534.265 817.4 526.165 811.3 513.465 811.3C502.165 811.3 494.165 816.7 493.465 826H501.965C502.365 821.6 506.165 818.7 513.665 818.7C522.465 818.7 525.965 823.1 525.965 829.2V831.2H509.565C495.565 831.2 490.265 839.8 490.265 847.9C490.265 856.5 496.765 864.3 508.365 864.3C515.565 864.3 520.965 861.6 524.065 857.7H526.265V863ZM510.465 856.9C502.965 856.9 498.765 853.3 498.765 847.6C498.765 841.6 502.565 838 510.865 838H525.965V842.6C525.965 850.6 518.865 856.9 510.465 856.9ZM549.529 877.1L579.429 787.1H571.729L541.529 877.1H549.529ZM616.554 811.3C608.554 811.3 603.854 814.4 601.154 818H598.954V790.3H590.454V863H598.654V857.6H600.854C603.654 861.1 608.554 864.3 616.554 864.3C630.454 864.3 638.654 852.7 638.654 837.8C638.654 822.6 630.454 811.3 616.554 811.3ZM614.654 856.9C603.454 856.9 598.854 847.7 598.854 837.8C598.854 827.9 603.454 818.7 614.654 818.7C624.754 818.7 630.154 826.6 630.154 837.8C630.154 849 624.754 856.9 614.654 856.9Z" fill="#274867"/>
<path d="M116.8 834.8C116.8 815 124.2 801 132.2 790.1H124C115.8 800.5 108.8 815.1 108.8 834.8C108.8 854.7 116 869.8 124.7 880.1H132.9C124.7 869.2 116.8 854.9 116.8 834.8Z" fill="#274867"/>
<path d="M212.6 834.8C212.6 854.9 204.7 869.2 196.5 880.1H204.7C213.4 869.8 220.6 854.7 220.6 834.8C220.6 815.1 213.6 800.5 205.4 790.1H197.2C205.2 801 212.6 815 212.6 834.8Z" fill="#274867"/>
<path d="M805.21 167H810.81V142.99C810.81 135.08 805.14 130.81 796.25 130.81C788.34 130.81 782.74 134.59 782.25 141.1H788.2C788.48 138.02 791.14 135.99 796.39 135.99C802.55 135.99 805 139.07 805 143.34V144.74H793.52C783.72 144.74 780.01 150.76 780.01 156.43C780.01 162.45 784.56 167.91 792.68 167.91C797.72 167.91 801.5 166.02 803.67 163.29H805.21V167ZM794.15 162.73C788.9 162.73 785.96 160.21 785.96 156.22C785.96 152.02 788.62 149.5 794.43 149.5H805V152.72C805 158.32 800.03 162.73 794.15 162.73ZM829.195 167H840.325L852.155 131.72H845.925L836.405 161.4H833.535L823.665 131.72H817.505L829.195 167ZM884.722 131.72V135.5H883.182C881.292 133.05 877.932 130.81 872.402 130.81C862.672 130.81 856.722 138.51 856.722 148.87C856.722 159.16 862.672 166.86 872.402 166.86C877.722 166.86 881.082 164.62 882.972 162.17H884.512V164.97C884.512 172.04 881.222 176.45 873.942 176.45C868.622 176.45 864.982 174.91 863.932 170.71H858.052C859.102 177.71 864.982 181.49 874.012 181.49C884.302 181.49 890.462 175.12 890.462 165.25V131.72H884.722ZM873.522 161.68C866.592 161.68 862.672 156.5 862.672 148.87C862.672 141.1 866.592 135.99 873.522 135.99C881.082 135.99 884.652 142.08 884.652 148.87C884.652 155.59 881.082 161.68 873.522 161.68Z" fill="#274867"/>
<path d="M612.21 564H617.81V539.99C617.81 532.08 612.14 527.81 603.25 527.81C595.34 527.81 589.74 531.59 589.25 538.1H595.2C595.48 535.02 598.14 532.99 603.39 532.99C609.55 532.99 612 536.07 612 540.34V541.74H600.52C590.72 541.74 587.01 547.76 587.01 553.43C587.01 559.45 591.56 564.91 599.68 564.91C604.72 564.91 608.5 563.02 610.67 560.29H612.21V564ZM601.15 559.73C595.9 559.73 592.96 557.21 592.96 553.22C592.96 549.02 595.62 546.5 601.43 546.5H612V549.72C612 555.32 607.03 559.73 601.15 559.73ZM636.195 564H647.325L659.155 528.72H652.925L643.405 558.4H640.535L630.665 528.72H624.505L636.195 564ZM691.722 528.72V532.5H690.182C688.292 530.05 684.932 527.81 679.402 527.81C669.672 527.81 663.722 535.51 663.722 545.87C663.722 556.16 669.672 563.86 679.402 563.86C684.722 563.86 688.082 561.62 689.972 559.17H691.512V561.97C691.512 569.04 688.222 573.45 680.942 573.45C675.622 573.45 671.982 571.91 670.932 567.71H665.052C666.102 574.71 671.982 578.49 681.012 578.49C691.302 578.49 697.462 572.12 697.462 562.25V528.72H691.722ZM680.522 558.68C673.592 558.68 669.672 553.5 669.672 545.87C669.672 538.1 673.592 532.99 680.522 532.99C688.082 532.99 691.652 539.08 691.652 545.87C691.652 552.59 688.082 558.68 680.522 558.68Z" fill="#274867"/>
<path d="M962.01 420.81C956.41 420.81 953.12 422.98 951.23 425.5H949.69V406.11H943.74V457H949.48V453.22H951.02C952.98 455.67 956.41 457.91 962.01 457.91C971.74 457.91 977.48 449.79 977.48 439.36C977.48 428.72 971.74 420.81 962.01 420.81ZM960.68 452.73C952.84 452.73 949.62 446.29 949.62 439.36C949.62 432.43 952.84 425.99 960.68 425.99C967.75 425.99 971.53 431.52 971.53 439.36C971.53 447.2 967.75 452.73 960.68 452.73ZM1022.58 441.53H987.156V446.64H1022.58V441.53ZM1022.58 427.6H987.156V432.71H1022.58V427.6ZM1071.41 420.81C1067 420.81 1063.64 422.35 1061.47 425.5H1059.93C1058.04 422.35 1054.89 420.81 1050.62 420.81C1046.14 420.81 1043.41 422.42 1041.66 425.15H1040.12V421.72H1034.38V457H1040.33V437.47C1040.33 431.1 1043.13 426.13 1049.01 426.13C1053.42 426.13 1055.73 429.14 1055.73 434.95V457H1061.68V436.35C1061.68 430.4 1064.76 426.13 1070.29 426.13C1074.84 426.13 1077.08 429 1077.08 434.81V457H1083.03V434.18C1083.03 426.06 1079.53 420.81 1071.41 420.81ZM1100.23 412.55V406.11H1093.93V412.55H1100.23ZM1100.02 421.72H1094.07V457H1100.02V421.72ZM1143.06 457V434.6C1143.06 426.13 1138.3 420.81 1129.62 420.81C1124.86 420.81 1120.94 422.77 1118.98 425.5H1117.44V421.72H1111.7V457H1117.65V437.89C1117.65 431.66 1121.85 426.13 1128.15 426.13C1134.1 426.13 1137.11 429.35 1137.11 435.86V457H1143.06Z" fill="#274867"/>
<path d="M1153.11 712.79C1151.5 718.6 1146.95 722.17 1139.95 722.17C1128.33 722.17 1123.22 712.65 1123.22 702.01C1123.22 691.44 1128.4 681.85 1140.02 681.85C1146.95 681.85 1150.66 684.79 1152.55 690.11H1159.2C1157.17 681.5 1150.17 676.11 1140.02 676.11C1125.18 676.11 1116.85 687.17 1116.85 702.01C1116.85 716.85 1125.04 727.91 1139.95 727.91C1150.94 727.91 1157.73 721.68 1159.76 712.79H1153.11Z" fill="#274867"/>
<path d="M1171.32 720.6V716.92H1167.72V720.6H1171.32ZM1164.76 754C1168.92 754 1171.24 751.52 1171.24 747.08V725.84H1167.84V746.96C1167.84 749.56 1166.84 751.04 1164.08 751.04H1162.24V754H1164.76Z" fill="#274867"/>
<path d="M1425.11 63.79C1423.5 69.6 1418.95 73.17 1411.95 73.17C1400.33 73.17 1395.22 63.65 1395.22 53.01C1395.22 42.44 1400.4 32.85 1412.02 32.85C1418.95 32.85 1422.66 35.79 1424.55 41.11H1431.2C1429.17 32.5 1422.17 27.11 1412.02 27.11C1397.18 27.11 1388.85 38.17 1388.85 53.01C1388.85 67.85 1397.04 78.91 1411.95 78.91C1422.94 78.91 1429.73 72.68 1431.76 63.79H1425.11Z" fill="#274867"/>
<path d="M1457.6 97L1450.44 83.04L1456.24 76.84H1452.2L1442.68 86.96V67.92H1439.28V97H1442.68V91.16L1447.32 86.04H1448.2L1453.96 97H1457.6Z" fill="#274867"/>
<path d="M164.11 403.79C162.5 409.6 157.95 413.17 150.95 413.17C139.33 413.17 134.22 403.65 134.22 393.01C134.22 382.44 139.4 372.85 151.02 372.85C157.95 372.85 161.66 375.79 163.55 381.11H170.2C168.17 372.5 161.17 367.11 151.02 367.11C136.18 367.11 127.85 378.17 127.85 393.01C127.85 407.85 136.04 418.91 150.95 418.91C161.94 418.91 168.73 412.68 170.76 403.79H164.11Z" fill="#274867"/>
<path d="M181.88 411.6V407.92H178.28V411.6H181.88ZM181.76 416.84H178.36V437H181.76V416.84Z" fill="#274867"/>
<path d="M582.54 178H589.75L574.84 151.33L587.79 128.02H581.07L570.01 147.97H567.42L556.5 128.02H549.71L562.52 151.61L547.54 178H554.4L567.35 155.32H569.94L582.54 178Z" fill="#274867"/>
<path d="M603.88 171.6V167.92H600.28V171.6H603.88ZM603.76 176.84H600.36V197H603.76V176.84Z" fill="#274867"/>
<path d="M170.54 857H177.75L162.84 830.33L175.79 807.02H169.07L158.01 826.97H155.42L144.5 807.02H137.71L150.52 830.61L135.54 857H142.4L155.35 834.32H157.94L170.54 857Z" fill="#274867"/>
<path d="M191.88 850.6V846.92H188.28V850.6H191.88ZM191.76 855.84H188.36V876H191.76V855.84Z" fill="#274867"/>
<path d="M312.5 123.5L442.93 204.379" stroke="#274867" stroke-width="3.45458"/>
<path d="M430.37 195.684L422.456 208.144L460.037 214.542L438.163 183.416L430.37 195.684Z" fill="#274867"/>
<path d="M743.997 533.499L912.007 427.998L862.023 213.445" stroke="#274867" stroke-width="3.45458"/>
<path d="M864.675 228.487L879.097 225.346L857.205 194.137L850.474 231.58L864.675 228.487Z" fill="#274867"/>
<path d="M759.637 523.531L751.838 510.999L729.784 542.093L767.315 535.871L759.637 523.531Z" fill="#274867"/>
<path d="M383 245L558.5 228" stroke="#007BFF" stroke-width="4"/>
<path d="M455.997 276.456L559.5 231" stroke="#007BFF" stroke-width="4"/>
<path d="M420.995 423L559.497 231" stroke="#007BFF" stroke-width="4"/>
<path d="M947.5 753.5L563 229" stroke="#21872B" stroke-width="4"/>
<path d="M879 618.5L563 229" stroke="#21872B" stroke-width="4"/>
<path d="M1004 683L563 229" stroke="#21872B" stroke-width="4"/>
<path d="M1271.5 367L563 229" stroke="#21872B" stroke-width="4"/>
<path d="M1337.5 294L563 229" stroke="#21872B" stroke-width="4"/>
<path d="M1207 238L563 229" stroke="#21872B" stroke-width="4"/>
<circle cx="381.5" cy="245.5" r="13.5" fill="#274867"/>
<circle cx="454.5" cy="278.5" r="13.5" fill="#274867"/>
<circle cx="563.5" cy="227.5" r="13.5" fill="#274867"/>
<circle cx="419.5" cy="423.5" r="13.5" fill="#274867"/>
<circle cx="1210.5" cy="237.5" r="13.5" fill="#274867"/>
<circle cx="1340.5" cy="294.5" r="13.5" fill="#274867"/>
<circle cx="1277.5" cy="369.5" r="13.5" fill="#274867"/>
<circle cx="947.5" cy="754.5" r="13.5" fill="#274867"/>
<circle cx="1003.5" cy="684.5" r="13.5" fill="#274867"/>
<circle cx="881.5" cy="620.5" r="13.5" fill="#274867"/>
</g>
<defs>
<clipPath id="clip0_2532_1993">
<rect width="1474" height="920" fill="white"/>
</clipPath>
</defs>
</svg>
